<svg width="48" height="48" viewBox="0 0 48 48" fill="none" xmlns="http://www.w3.org/2000/svg">
<g id="Voice">
<g id="Iconly/Bold/Voice">
<g id="Voice_2">
<path id="Vector" d="M39.0626 19.6525C40.132 19.6525 41 20.5077 41 21.5657C41 30.1733 34.4011 37.2808 25.9384 38.2355V42.0868C25.9384 43.1429 25.0704 44 24.001 44C22.9296 44 22.0635 43.1429 22.0635 42.0868V38.2355C13.5989 37.2808 7 30.1733 7 21.5657C7 20.5077 7.86797 19.6525 8.93743 19.6525C10.0069 19.6525 10.8749 20.5077 10.8749 21.5657C10.8749 28.7116 16.7627 34.5258 24.001 34.5258C31.2373 34.5258 37.1251 28.7116 37.1251 21.5657C37.1251 20.5077 37.9931 19.6525 39.0626 19.6525ZM24.3495 4C29.1563 4 33.0544 7.84746 33.0544 12.5941V21.8407C33.0544 26.5854 29.1563 30.4348 24.3495 30.4348H23.6501C18.8433 30.4348 14.9472 26.5854 14.9472 21.8407V12.5941C14.9472 7.84746 18.8433 4 23.6501 4H24.3495Z" fill="black"/>
</g>
</g>
</g>
</svg>
